# xmcd CD database file
#
# Track frame offsets:
#	150
#	19875
#	34275
#	52350
#	76800
#	104850
#	126375
#	149250
#	169575
#	192000
#	209025
#	228675
#	246750
#	266550
#	287775
#	303750
#
# Disc length: 4317 seconds
#
# Revision: 1
# Processed by: cddbd v1.5.1PL2 Copyright (c) Steve Scherf et al.
# Submitted via: freeDBTagger 0.8.2.1
#
DISCID=f610db10
DTITLE=SPITZ - Cycle Hit 1991-1997 Spitz Comp
DYEAR=2006
DGENRE=rock
TTITLE0=ヒバリのころ
TTITLE1=夏の魔物
TTITLE2=魔女旅に出る
TTITLE3=惑星のかけら
TTITLE4=日なたの窓に憧れて
TTITLE5=裸のままで
TTITLE6=君が思い出になる前に
TTITLE7=空も飛べるはず
TTITLE8=青い車
TTITLE9=スパイダー
TTITLE10=ロビンソン
TTITLE11=涙がキラリ
TTITLE12=チェリー
TTITLE13=渚
TTITLE14=スカーレット
TTITLE15=めざめ（空も飛べるはず）
EXTD=
EXTT0=
EXTT1=
EXTT2=
EXTT3=
EXTT4=
EXTT5=
EXTT6=
EXTT7=
EXTT8=
EXTT9=
EXTT10=
EXTT11=
EXTT12=
EXTT13=
EXTT14=
EXTT15=
PLAYORDER=
